<?xml version="1.0" encoding="UTF-8" standalone="no"?>
<svg
   xmlns:dc="http://purl.org/dc/elements/1.1/"
   xmlns:cc="http://creativecommons.org/ns#"
   xmlns:rdf="http://www.w3.org/1999/02/22-rdf-syntax-ns#"
   xmlns:svg="http://www.w3.org/2000/svg"
   xmlns="http://www.w3.org/2000/svg"
   id="svg8116"
   version="1.1"
   viewBox="0 0 210 297"
   height="297mm"
   width="210mm">
  <defs
     id="defs8110" />
  <metadata
     id="metadata8113">
    <rdf:RDF>
      <cc:Work
         rdf:about="">
        <dc:format>image/svg+xml</dc:format>
        <dc:type
           rdf:resource="http://purl.org/dc/dcmitype/StillImage" />
        <dc:title></dc:title>
      </cc:Work>
    </rdf:RDF>
  </metadata>
  <g
     id="layer1">
    <g
       transform="translate(-875.07231,-29.997417)"
       id="g8108">
      <g
         id="g5495"
         transform="matrix(0.63285414,0,0,0.63285414,984.73508,233.53534)">
        <g
           aria-label="SOCIAL"
           style="font-style:normal;font-variant:normal;font-weight:normal;font-stretch:normal;font-size:50.79999924px;line-height:1.25;font-family:'TeX Gyre Adventor';-inkscape-font-specification:'TeX Gyre Adventor';letter-spacing:0px;word-spacing:0px;fill:#000000;fill-opacity:1;stroke:#000000;stroke-width:3.13290429;stroke-miterlimit:4;stroke-dasharray:none;stroke-opacity:1"
           id="g5282"
           transform="matrix(0.91695543,0,0,1,-34.949335,-356.59313)">
          <path
             d="m -210.92551,-42.950559 c 0,-5.007269 -2.94793,-8.261993 -13.73302,-11.066064 -5.03304,-1.30189 -5.17684,-1.351963 -5.89585,-1.652399 -1.94131,-0.851235 -2.94792,-2.002907 -2.94792,-3.35487 0,-2.203198 2.22892,-3.755452 5.46444,-3.755452 3.30743,0 5.32065,1.402036 5.60825,3.90567 h 10.20989 c -0.50331,-6.509449 -7.19006,-10.515263 -15.74623,-10.515263 -8.55618,0 -15.45863,4.656759 -15.45863,10.515263 0,4.65676 3.95453,8.211921 11.07269,10.064611 7.04626,1.852689 7.62146,2.002907 9.20328,2.854143 1.58181,0.851236 2.44462,2.253271 2.44462,3.755452 0,2.653852 -2.94793,4.506542 -7.19006,4.506542 -4.38594,0 -6.75866,-1.502181 -7.19006,-4.606688 h -10.28179 c 0.86281,7.010177 8.12477,11.216282 17.47185,11.216282 9.56278,0 16.96854,-5.157486 16.96854,-11.867227 z"
             style="stroke:#000000;stroke-width:3.13290429;stroke-miterlimit:4;stroke-dasharray:none;stroke-opacity:1"
             id="path5270" />
          <path
             d="m -167.08626,-50.539732 c 0,-10.7188 -8.5852,-19.405599 -19.304,-19.405599 -11.176,0 -19.812,8.483599 -19.812,19.456399 0,10.8204 8.7376,19.4056 19.7612,19.4056 10.922,0 19.3548,-8.4836 19.3548,-19.4564 z m -7.0104,0.1016 c 0,7.2136 -5.2832,12.6492 -12.3952,12.6492 -7.112,0 -12.7,-5.588 -12.7,-12.7 0,-7.2644 5.4864,-12.7508 12.7,-12.7508 6.9596,0 12.3952,5.588 12.3952,12.8016 z"
             style="stroke:#000000;stroke-width:3.13290429;stroke-miterlimit:4;stroke-dasharray:none;stroke-opacity:1"
             id="path5272" />
          <path
             d="m -124.82374,-42.208532 h -8.1788 c -3.048,3.2004 -5.6896,4.4196 -9.2964,4.4196 -6.9088,0 -12.5984,-5.7912 -12.5984,-12.8016 0,-7.0612 5.2832,-12.6492 12.446,-12.6492 4.3688,0 7.3152,1.4224 9.8552,4.7244 h 7.7724 c -3.302,-7.2644 -10.0584,-11.429999 -17.78,-11.429999 -10.6172,0 -19.304,8.686799 -19.304,19.303999 0,10.8204 8.7884,19.558 19.7612,19.558 7.6708,0 14.3764,-4.2672 17.3228,-11.1252 z"
             style="stroke:#000000;stroke-width:3.13290429;stroke-miterlimit:4;stroke-dasharray:none;stroke-opacity:1"
             id="path5274" />
          <path
             d="m -107.72817,-31.083332 v -37.541199 h -9.37142 v 37.541199 z"
             style="stroke:#000000;stroke-width:3.13290429;stroke-miterlimit:4;stroke-dasharray:none;stroke-opacity:1"
             id="path5276" />
          <path
             d="m -62.346932,-31.083332 -16.388274,-37.469491 h -5.709464 l -16.28255,37.469491 h 7.982682 l 4.334963,-9.684266 h 13.903601 l 4.176367,9.684266 z m -15.066639,-16.326355 h -8.352734 l 4.176367,-11.357465 z"
             style="stroke:#000000;stroke-width:3.13290429;stroke-miterlimit:4;stroke-dasharray:none;stroke-opacity:1"
             id="path5278" />
          <path
             d="m -28.003995,-31.083332 v -8.677177 h -16.141614 v -28.33211 h -9.784959 v 37.009287 z"
             style="stroke:#000000;stroke-width:3.13290429;stroke-miterlimit:4;stroke-dasharray:none;stroke-opacity:1"
             id="path5280" />
        </g>
        <g
           aria-label="SOCIAL"
           style="font-style:normal;font-variant:normal;font-weight:normal;font-stretch:normal;font-size:50.79999924px;line-height:1.25;font-family:'TeX Gyre Adventor';-inkscape-font-specification:'TeX Gyre Adventor';letter-spacing:0px;word-spacing:0px;fill:#00ffff;fill-opacity:1;stroke:#00ffff;stroke-width:3.13290429;stroke-miterlimit:4;stroke-dasharray:none;stroke-opacity:1"
           id="g5328"
           transform="matrix(0.91695543,0,0,1,-36.536834,-357.65146)">
          <path
             d="m -210.92551,-42.950559 c 0,-5.007269 -2.94793,-8.261993 -13.73302,-11.066064 -5.03304,-1.30189 -5.17684,-1.351963 -5.89585,-1.652399 -1.94131,-0.851235 -2.94792,-2.002907 -2.94792,-3.35487 0,-2.203198 2.22892,-3.755452 5.46444,-3.755452 3.30743,0 5.32065,1.402036 5.60825,3.90567 h 10.20989 c -0.50331,-6.509449 -7.19006,-10.515263 -15.74623,-10.515263 -8.55618,0 -15.45863,4.656759 -15.45863,10.515263 0,4.65676 3.95453,8.211921 11.07269,10.064611 7.04626,1.852689 7.62146,2.002907 9.20328,2.854143 1.58181,0.851236 2.44462,2.253271 2.44462,3.755452 0,2.653852 -2.94793,4.506542 -7.19006,4.506542 -4.38594,0 -6.75866,-1.502181 -7.19006,-4.606688 h -10.28179 c 0.86281,7.010177 8.12477,11.216282 17.47185,11.216282 9.56278,0 16.96854,-5.157486 16.96854,-11.867227 z"
             style="fill:#00ffff;stroke:#00ffff;stroke-width:3.13290429;stroke-miterlimit:4;stroke-dasharray:none;stroke-opacity:1"
             id="path5316" />
          <path
             d="m -167.08626,-50.539732 c 0,-10.7188 -8.5852,-19.405599 -19.304,-19.405599 -11.176,0 -19.812,8.483599 -19.812,19.456399 0,10.8204 8.7376,19.4056 19.7612,19.4056 10.922,0 19.3548,-8.4836 19.3548,-19.4564 z m -7.0104,0.1016 c 0,7.2136 -5.2832,12.6492 -12.3952,12.6492 -7.112,0 -12.7,-5.588 -12.7,-12.7 0,-7.2644 5.4864,-12.7508 12.7,-12.7508 6.9596,0 12.3952,5.588 12.3952,12.8016 z"
             style="fill:#00ffff;stroke:#00ffff;stroke-width:3.13290429;stroke-miterlimit:4;stroke-dasharray:none;stroke-opacity:1"
             id="path5318" />
          <path
             d="m -124.82374,-42.208532 h -8.1788 c -3.048,3.2004 -5.6896,4.4196 -9.2964,4.4196 -6.9088,0 -12.5984,-5.7912 -12.5984,-12.8016 0,-7.0612 5.2832,-12.6492 12.446,-12.6492 4.3688,0 7.3152,1.4224 9.8552,4.7244 h 7.7724 c -3.302,-7.2644 -10.0584,-11.429999 -17.78,-11.429999 -10.6172,0 -19.304,8.686799 -19.304,19.303999 0,10.8204 8.7884,19.558 19.7612,19.558 7.6708,0 14.3764,-4.2672 17.3228,-11.1252 z"
             style="fill:#00ffff;stroke:#00ffff;stroke-width:3.13290429;stroke-miterlimit:4;stroke-dasharray:none;stroke-opacity:1"
             id="path5320" />
          <path
             d="m -107.72817,-31.083332 v -37.541199 h -9.37142 v 37.541199 z"
             style="fill:#00ffff;stroke:#00ffff;stroke-width:3.13290429;stroke-miterlimit:4;stroke-dasharray:none;stroke-opacity:1"
             id="path5322" />
          <path
             d="m -62.346932,-31.083332 -16.388274,-37.469491 h -5.709464 l -16.28255,37.469491 h 7.982682 l 4.334963,-9.684266 h 13.903601 l 4.176367,9.684266 z m -15.066639,-16.326355 h -8.352734 l 4.176367,-11.357465 z"
             style="fill:#00ffff;stroke:#00ffff;stroke-width:3.13290429;stroke-miterlimit:4;stroke-dasharray:none;stroke-opacity:1"
             id="path5324" />
          <path
             d="m -28.003995,-31.083332 v -8.677177 h -16.141614 v -28.33211 h -9.784959 v 37.009287 z"
             style="fill:#00ffff;stroke:#00ffff;stroke-width:3.13290429;stroke-miterlimit:4;stroke-dasharray:none;stroke-opacity:1"
             id="path5326" />
        </g>
        <g
           transform="matrix(0.91695543,0,0,1,-38.124335,-358.18063)"
           id="g5374"
           style="font-style:normal;font-variant:normal;font-weight:normal;font-stretch:normal;font-size:50.79999924px;line-height:1.25;font-family:'TeX Gyre Adventor';-inkscape-font-specification:'TeX Gyre Adventor';letter-spacing:0px;word-spacing:0px;fill:#008000;fill-opacity:1;stroke:#008000;stroke-width:3.13290429;stroke-miterlimit:4;stroke-dasharray:none;stroke-opacity:1"
           aria-label="SOCIAL">
          <path
             id="path5362"
             style="fill:#008000;stroke:#008000;stroke-width:3.13290429;stroke-miterlimit:4;stroke-dasharray:none;stroke-opacity:1"
             d="m -210.92551,-42.950559 c 0,-5.007269 -2.94793,-8.261993 -13.73302,-11.066064 -5.03304,-1.30189 -5.17684,-1.351963 -5.89585,-1.652399 -1.94131,-0.851235 -2.94792,-2.002907 -2.94792,-3.35487 0,-2.203198 2.22892,-3.755452 5.46444,-3.755452 3.30743,0 5.32065,1.402036 5.60825,3.90567 h 10.20989 c -0.50331,-6.509449 -7.19006,-10.515263 -15.74623,-10.515263 -8.55618,0 -15.45863,4.656759 -15.45863,10.515263 0,4.65676 3.95453,8.211921 11.07269,10.064611 7.04626,1.852689 7.62146,2.002907 9.20328,2.854143 1.58181,0.851236 2.44462,2.253271 2.44462,3.755452 0,2.653852 -2.94793,4.506542 -7.19006,4.506542 -4.38594,0 -6.75866,-1.502181 -7.19006,-4.606688 h -10.28179 c 0.86281,7.010177 8.12477,11.216282 17.47185,11.216282 9.56278,0 16.96854,-5.157486 16.96854,-11.867227 z" />
          <path
             id="path5364"
             style="fill:#008000;stroke:#008000;stroke-width:3.13290429;stroke-miterlimit:4;stroke-dasharray:none;stroke-opacity:1"
             d="m -167.08626,-50.539732 c 0,-10.7188 -8.5852,-19.405599 -19.304,-19.405599 -11.176,0 -19.812,8.483599 -19.812,19.456399 0,10.8204 8.7376,19.4056 19.7612,19.4056 10.922,0 19.3548,-8.4836 19.3548,-19.4564 z m -7.0104,0.1016 c 0,7.2136 -5.2832,12.6492 -12.3952,12.6492 -7.112,0 -12.7,-5.588 -12.7,-12.7 0,-7.2644 5.4864,-12.7508 12.7,-12.7508 6.9596,0 12.3952,5.588 12.3952,12.8016 z" />
          <path
             id="path5366"
             style="fill:#008000;stroke:#008000;stroke-width:3.13290429;stroke-miterlimit:4;stroke-dasharray:none;stroke-opacity:1"
             d="m -124.82374,-42.208532 h -8.1788 c -3.048,3.2004 -5.6896,4.4196 -9.2964,4.4196 -6.9088,0 -12.5984,-5.7912 -12.5984,-12.8016 0,-7.0612 5.2832,-12.6492 12.446,-12.6492 4.3688,0 7.3152,1.4224 9.8552,4.7244 h 7.7724 c -3.302,-7.2644 -10.0584,-11.429999 -17.78,-11.429999 -10.6172,0 -19.304,8.686799 -19.304,19.303999 0,10.8204 8.7884,19.558 19.7612,19.558 7.6708,0 14.3764,-4.2672 17.3228,-11.1252 z" />
          <path
             id="path5368"
             style="fill:#008000;stroke:#008000;stroke-width:3.13290429;stroke-miterlimit:4;stroke-dasharray:none;stroke-opacity:1"
             d="m -107.72817,-31.083332 v -37.541199 h -9.37142 v 37.541199 z" />
          <path
             id="path5370"
             style="fill:#008000;stroke:#008000;stroke-width:3.13290429;stroke-miterlimit:4;stroke-dasharray:none;stroke-opacity:1"
             d="m -62.346932,-31.083332 -16.388274,-37.469491 h -5.709464 l -16.28255,37.469491 h 7.982682 l 4.334963,-9.684266 h 13.903601 l 4.176367,9.684266 z m -15.066639,-16.326355 h -8.352734 l 4.176367,-11.357465 z" />
          <path
             id="path5372"
             style="fill:#008000;stroke:#008000;stroke-width:3.13290429;stroke-miterlimit:4;stroke-dasharray:none;stroke-opacity:1"
             d="m -28.003995,-31.083332 v -8.677177 h -16.141614 v -28.33211 h -9.784959 v 37.009287 z" />
        </g>
      </g>
      <g
         id="g5544"
         transform="matrix(0.63285414,0,0,0.63285414,1212.4571,146.9229)">
        <g
           aria-label="TODAY"
           style="font-style:normal;font-variant:normal;font-weight:normal;font-stretch:normal;font-size:50.79999924px;line-height:1.25;font-family:'TeX Gyre Adventor';-inkscape-font-specification:'TeX Gyre Adventor';letter-spacing:0px;word-spacing:0px;fill:#000000;fill-opacity:1;stroke:#000000;stroke-width:3.13290429;stroke-miterlimit:4;stroke-dasharray:none;stroke-opacity:1"
           id="g5294"
           transform="matrix(0.91695543,0,0,1,-365.96439,-219.7331)">
          <path
             d="m 158.89298,-58.558241 v -9.76327 h -30.68905 v 9.76327 h 10.32774 v 27.474909 h 10.03357 v -27.474909 z"
             style="stroke:#000000;stroke-width:3.13290429;stroke-miterlimit:4;stroke-dasharray:none;stroke-opacity:1"
             id="path5284" />
          <path
             d="m 203.55247,-50.539732 c 0,-10.7188 -8.5852,-19.405599 -19.304,-19.405599 -11.176,0 -19.812,8.483599 -19.812,19.456399 0,10.8204 8.7376,19.4056 19.7612,19.4056 10.922,0 19.3548,-8.4836 19.3548,-19.4564 z m -7.0104,0.1016 c 0,7.2136 -5.2832,12.6492 -12.3952,12.6492 -7.112,0 -12.7,-5.588 -12.7,-12.7 0,-7.2644 5.4864,-12.7508 12.7,-12.7508 6.9596,0 12.3952,5.588 12.3952,12.8016 z"
             style="stroke:#000000;stroke-width:3.13290429;stroke-miterlimit:4;stroke-dasharray:none;stroke-opacity:1"
             id="path5286" />
          <path
             d="m 244.13322,-49.861423 c 0,-7.112 -3.28436,-13.0048 -9.11692,-16.1544 -3.28436,-1.778 -8.26751,-2.692399 -14.83622,-2.692399 h -9.56993 v 37.541199 h 9.73981 c 6.3422,0 10.1362,-0.5588 13.5338,-2.0828 6.45546,-2.8448 10.24946,-9.0424 10.24946,-16.6116 z m -7.8145,0 c 0,4.5212 -2.3217,8.5344 -6.05907,10.3632 -2.3217,1.1684 -5.54943,1.6764 -10.19283,1.6764 h -1.6988 v -24.2316 h 1.52892 c 4.92653,0 7.58799,0.4064 10.02295,1.524 3.96387,1.8288 6.39883,5.842 6.39883,10.668 z"
             style="stroke:#000000;stroke-width:3.13290429;stroke-miterlimit:4;stroke-dasharray:none;stroke-opacity:1"
             id="path5288" />
          <path
             d="M 283.78921,-31.083332 267.5341,-68.624531 h -5.66307 l -16.15024,37.541199 h 7.91781 l 4.29974,-9.7028 h 13.79062 l 4.14244,9.7028 z m -14.94422,-16.3576 h -8.28486 l 4.14243,-11.3792 z"
             style="fill:#000000;stroke:#000000;stroke-width:3.13290429;stroke-miterlimit:4;stroke-dasharray:none;stroke-opacity:1"
             id="path5290" />
          <path
             d="m 318.82298,-68.139136 h -8.80238 l -9.69453,16.825357 -9.754,-16.825357 h -8.80239 l 14.45257,23.060636 v 13.509773 h 8.14816 V -45.0785 Z"
             style="stroke:#000000;stroke-width:3.13290429;stroke-miterlimit:4;stroke-dasharray:none;stroke-opacity:1"
             id="path5292" />
        </g>
        <g
           aria-label="TODAY"
           style="font-style:normal;font-variant:normal;font-weight:normal;font-stretch:normal;font-size:50.79999924px;line-height:1.25;font-family:'TeX Gyre Adventor';-inkscape-font-specification:'TeX Gyre Adventor';letter-spacing:0px;word-spacing:0px;fill:#00ffff;fill-opacity:1;stroke:#00ffff;stroke-width:3.13290429;stroke-miterlimit:4;stroke-dasharray:none;stroke-opacity:1"
           id="g5340"
           transform="matrix(0.91695543,0,0,1,-367.55189,-220.79143)">
          <path
             d="m 158.89298,-58.558241 v -9.76327 h -30.68905 v 9.76327 h 10.32774 v 27.474909 h 10.03357 v -27.474909 z"
             style="fill:#00ffff;stroke:#00ffff;stroke-width:3.13290429;stroke-miterlimit:4;stroke-dasharray:none;stroke-opacity:1"
             id="path5330" />
          <path
             d="m 203.55247,-50.539732 c 0,-10.7188 -8.5852,-19.405599 -19.304,-19.405599 -11.176,0 -19.812,8.483599 -19.812,19.456399 0,10.8204 8.7376,19.4056 19.7612,19.4056 10.922,0 19.3548,-8.4836 19.3548,-19.4564 z m -7.0104,0.1016 c 0,7.2136 -5.2832,12.6492 -12.3952,12.6492 -7.112,0 -12.7,-5.588 -12.7,-12.7 0,-7.2644 5.4864,-12.7508 12.7,-12.7508 6.9596,0 12.3952,5.588 12.3952,12.8016 z"
             style="fill:#00ffff;stroke:#00ffff;stroke-width:3.13290429;stroke-miterlimit:4;stroke-dasharray:none;stroke-opacity:1"
             id="path5332" />
          <path
             d="m 244.13322,-49.861423 c 0,-7.112 -3.28436,-13.0048 -9.11692,-16.1544 -3.28436,-1.778 -8.26751,-2.692399 -14.83622,-2.692399 h -9.56993 v 37.541199 h 9.73981 c 6.3422,0 10.1362,-0.5588 13.5338,-2.0828 6.45546,-2.8448 10.24946,-9.0424 10.24946,-16.6116 z m -7.8145,0 c 0,4.5212 -2.3217,8.5344 -6.05907,10.3632 -2.3217,1.1684 -5.54943,1.6764 -10.19283,1.6764 h -1.6988 v -24.2316 h 1.52892 c 4.92653,0 7.58799,0.4064 10.02295,1.524 3.96387,1.8288 6.39883,5.842 6.39883,10.668 z"
             style="fill:#00ffff;stroke:#00ffff;stroke-width:3.13290429;stroke-miterlimit:4;stroke-dasharray:none;stroke-opacity:1"
             id="path5334" />
          <path
             d="M 283.78921,-31.083332 267.5341,-68.624531 h -5.66307 l -16.15024,37.541199 h 7.91781 l 4.29974,-9.7028 h 13.79062 l 4.14244,9.7028 z m -14.94422,-16.3576 h -8.28486 l 4.14243,-11.3792 z"
             style="fill:#00ffff;stroke:#00ffff;stroke-width:3.13290429;stroke-miterlimit:4;stroke-dasharray:none;stroke-opacity:1"
             id="path5336" />
          <path
             d="m 318.82298,-68.139136 h -8.80238 l -9.69453,16.825357 -9.754,-16.825357 h -8.80239 l 14.45257,23.060636 v 13.509773 h 8.14816 V -45.0785 Z"
             style="fill:#00ffff;stroke:#00ffff;stroke-width:3.13290429;stroke-miterlimit:4;stroke-dasharray:none;stroke-opacity:1"
             id="path5338" />
        </g>
        <g
           transform="matrix(0.91695543,0,0,1,-369.13939,-221.3206)"
           id="g5386"
           style="font-style:normal;font-variant:normal;font-weight:normal;font-stretch:normal;font-size:50.79999924px;line-height:1.25;font-family:'TeX Gyre Adventor';-inkscape-font-specification:'TeX Gyre Adventor';letter-spacing:0px;word-spacing:0px;fill:#008000;fill-opacity:1;stroke:#008000;stroke-width:3.13290429;stroke-miterlimit:4;stroke-dasharray:none;stroke-opacity:1"
           aria-label="TODAY">
          <path
             id="path5376"
             style="fill:#008000;stroke:#008000;stroke-width:3.13290429;stroke-miterlimit:4;stroke-dasharray:none;stroke-opacity:1"
             d="m 158.89298,-58.558241 v -9.76327 h -30.68905 v 9.76327 h 10.32774 v 27.474909 h 10.03357 v -27.474909 z" />
          <path
             id="path5378"
             style="fill:#008000;stroke:#008000;stroke-width:3.13290429;stroke-miterlimit:4;stroke-dasharray:none;stroke-opacity:1"
             d="m 203.55247,-50.539732 c 0,-10.7188 -8.5852,-19.405599 -19.304,-19.405599 -11.176,0 -19.812,8.483599 -19.812,19.456399 0,10.8204 8.7376,19.4056 19.7612,19.4056 10.922,0 19.3548,-8.4836 19.3548,-19.4564 z m -7.0104,0.1016 c 0,7.2136 -5.2832,12.6492 -12.3952,12.6492 -7.112,0 -12.7,-5.588 -12.7,-12.7 0,-7.2644 5.4864,-12.7508 12.7,-12.7508 6.9596,0 12.3952,5.588 12.3952,12.8016 z" />
          <path
             id="path5380"
             style="fill:#008000;stroke:#008000;stroke-width:3.13290429;stroke-miterlimit:4;stroke-dasharray:none;stroke-opacity:1"
             d="m 244.13322,-49.861423 c 0,-7.112 -3.28436,-13.0048 -9.11692,-16.1544 -3.28436,-1.778 -8.26751,-2.692399 -14.83622,-2.692399 h -9.56993 v 37.541199 h 9.73981 c 6.3422,0 10.1362,-0.5588 13.5338,-2.0828 6.45546,-2.8448 10.24946,-9.0424 10.24946,-16.6116 z m -7.8145,0 c 0,4.5212 -2.3217,8.5344 -6.05907,10.3632 -2.3217,1.1684 -5.54943,1.6764 -10.19283,1.6764 h -1.6988 v -24.2316 h 1.52892 c 4.92653,0 7.58799,0.4064 10.02295,1.524 3.96387,1.8288 6.39883,5.842 6.39883,10.668 z" />
          <path
             id="path5382"
             style="fill:#008000;stroke:#008000;stroke-width:3.13290429;stroke-miterlimit:4;stroke-dasharray:none;stroke-opacity:1"
             d="M 283.78921,-31.083332 267.5341,-68.624531 h -5.66307 l -16.15024,37.541199 h 7.91781 l 4.29974,-9.7028 h 13.79062 l 4.14244,9.7028 z m -14.94422,-16.3576 h -8.28486 l 4.14243,-11.3792 z" />
          <path
             id="path5384"
             style="fill:#008000;stroke:#008000;stroke-width:3.13290429;stroke-miterlimit:4;stroke-dasharray:none;stroke-opacity:1"
             d="m 318.82298,-68.139136 h -8.80238 l -9.69453,16.825357 -9.754,-16.825357 h -8.80239 l 14.45257,23.060636 v 13.509773 h 8.14816 V -45.0785 Z" />
        </g>
      </g>
      <g
         id="g5524"
         transform="matrix(0.63285414,0,0,0.63285414,1101.369,194.65437)">
        <g
           aria-label="GOOD"
           style="font-style:normal;font-variant:normal;font-weight:normal;font-stretch:normal;font-size:50.79999924px;line-height:1.25;font-family:'TeX Gyre Adventor';-inkscape-font-specification:'TeX Gyre Adventor';letter-spacing:0px;word-spacing:0px;fill:#000000;fill-opacity:1;stroke:#000000;stroke-width:3.13290429;stroke-miterlimit:4;stroke-dasharray:none;stroke-opacity:1"
           id="g5310"
           transform="matrix(0.91695543,0,0,1,-197.26659,-295.15563)">
          <path
             d="m -6.2620787,-49.980932 v -0.9144 H -30.798486 v 6.5024 h 15.544805 c -2.032002,4.1656 -6.096004,6.604 -11.023605,6.604 -7.366,0 -13.0048,-5.5372 -13.0048,-12.7 0,-7.0612 5.1816,-12.7508 12.5984,-12.7508 4.3688,0 7.975603,1.7272 10.312404,4.9784 h 8.1788033 c -2.4384003,-6.7564 -10.1600043,-11.683999 -18.3388073,-11.683999 -10.9728,0 -19.7612,8.585199 -19.7612,19.354799 0,10.9728 8.89,19.5072 20.4216,19.5072 11.074405,0 19.6088073,-8.6868 19.6088073,-18.8976 z"
             style="stroke:#000000;stroke-width:3.13290429;stroke-miterlimit:4;stroke-dasharray:none;stroke-opacity:1"
             id="path5296" />
          <g
             style="stroke-width:3.13290429;stroke-miterlimit:4;stroke-dasharray:none"
             id="g5306"
             transform="translate(-2.8477548)">
            <g
               style="stroke-width:3.13290429;stroke-miterlimit:4;stroke-dasharray:none"
               id="g5304">
              <g
                 style="stroke-width:3.13290429;stroke-miterlimit:4;stroke-dasharray:none"
                 id="g5302">
                <path
                   id="path5298"
                   style="stroke:#000000;stroke-width:3.13290429;stroke-miterlimit:4;stroke-dasharray:none;stroke-opacity:1"
                   d="m 42.895914,-50.539732 c 0,-10.7188 -8.5852,-19.405599 -19.304,-19.405599 -11.175999,0 -19.811996,8.483599 -19.811996,19.456399 0,10.8204 8.737597,19.4056 19.761196,19.4056 10.922,0 19.3548,-8.4836 19.3548,-19.4564 z m -7.0104,0.1016 c 0,7.2136 -5.2832,12.6492 -12.3952,12.6492 -7.112,0 -12.699999,-5.588 -12.699999,-12.7 0,-7.2644 5.486399,-12.7508 12.699999,-12.7508 6.9596,0 12.3952,5.588 12.3952,12.8016 z" />
                <path
                   id="path5300"
                   style="stroke:#000000;stroke-width:3.13290429;stroke-miterlimit:4;stroke-dasharray:none;stroke-opacity:1"
                   d="m 88.734979,-50.539732 c 0,-10.7188 -8.5852,-19.405599 -19.304,-19.405599 -11.176,0 -19.812,8.483599 -19.812,19.456399 0,10.8204 8.7376,19.4056 19.7612,19.4056 10.922,0 19.3548,-8.4836 19.3548,-19.4564 z m -7.0104,0.1016 c 0,7.2136 -5.2832,12.6492 -12.3952,12.6492 -7.112,0 -12.7,-5.588 -12.7,-12.7 0,-7.2644 5.4864,-12.7508 12.7,-12.7508 6.9596,0 12.3952,5.588 12.3952,12.8016 z" />
              </g>
            </g>
          </g>
          <path
             d="m 126.67816,-49.861423 c 0,-7.112 -3.28435,-13.0048 -9.11692,-16.1544 -3.28435,-1.778 -8.26751,-2.692399 -14.83622,-2.692399 h -9.569912 v 37.541199 h 9.739792 c 6.3422,0 10.1362,-0.5588 13.53381,-2.0828 6.45545,-2.8448 10.24945,-9.0424 10.24945,-16.6116 z m -7.8145,0 c 0,4.5212 -2.3217,8.5344 -6.05907,10.3632 -2.3217,1.1684 -5.54942,1.6764 -10.19282,1.6764 h -1.69881 v -24.2316 h 1.52893 c 4.92653,0 7.58799,0.4064 10.02294,1.524 3.96388,1.8288 6.39883,5.842 6.39883,10.668 z"
             style="stroke:#000000;stroke-width:3.13290429;stroke-miterlimit:4;stroke-dasharray:none;stroke-opacity:1"
             id="path5308" />
        </g>
        <path
           style="fill:none;stroke:#000000;stroke-width:7;stroke-linecap:butt;stroke-linejoin:miter;stroke-miterlimit:4;stroke-dasharray:none;stroke-opacity:1"
           d="m -194.22297,-318.07093 c 0,0 13.25287,17.57532 36.76114,17.57532 22.03782,0 36.76113,-17.57532 36.76113,-17.57532"
           id="path5312" />
        <g
           aria-label="GOOD"
           style="font-style:normal;font-variant:normal;font-weight:normal;font-stretch:normal;font-size:50.79999924px;line-height:1.25;font-family:'TeX Gyre Adventor';-inkscape-font-specification:'TeX Gyre Adventor';letter-spacing:0px;word-spacing:0px;fill:#00ffff;fill-opacity:1;stroke:#00ffff;stroke-width:3.13290429;stroke-miterlimit:4;stroke-dasharray:none;stroke-opacity:1"
           id="g5356"
           transform="matrix(0.91695543,0,0,1,-198.85409,-296.21396)">
          <path
             d="m -6.2620787,-49.980932 v -0.9144 H -30.798486 v 6.5024 h 15.544805 c -2.032002,4.1656 -6.096004,6.604 -11.023605,6.604 -7.366,0 -13.0048,-5.5372 -13.0048,-12.7 0,-7.0612 5.1816,-12.7508 12.5984,-12.7508 4.3688,0 7.975603,1.7272 10.312404,4.9784 h 8.1788033 c -2.4384003,-6.7564 -10.1600043,-11.683999 -18.3388073,-11.683999 -10.9728,0 -19.7612,8.585199 -19.7612,19.354799 0,10.9728 8.89,19.5072 20.4216,19.5072 11.074405,0 19.6088073,-8.6868 19.6088073,-18.8976 z"
             style="fill:#00ffff;stroke:#00ffff;stroke-width:3.13290429;stroke-miterlimit:4;stroke-dasharray:none;stroke-opacity:1"
             id="path5342" />
          <g
             style="fill:#00ffff;stroke:#00ffff;stroke-width:3.13290429;stroke-miterlimit:4;stroke-dasharray:none"
             id="g5352"
             transform="translate(-2.8477548)">
            <g
               style="fill:#00ffff;stroke:#00ffff;stroke-width:3.13290429;stroke-miterlimit:4;stroke-dasharray:none"
               id="g5350">
              <g
                 style="fill:#00ffff;stroke:#00ffff;stroke-width:3.13290429;stroke-miterlimit:4;stroke-dasharray:none"
                 id="g5348">
                <path
                   id="path5344"
                   style="fill:#00ffff;stroke:#00ffff;stroke-width:3.13290429;stroke-miterlimit:4;stroke-dasharray:none;stroke-opacity:1"
                   d="m 42.895914,-50.539732 c 0,-10.7188 -8.5852,-19.405599 -19.304,-19.405599 -11.175999,0 -19.811996,8.483599 -19.811996,19.456399 0,10.8204 8.737597,19.4056 19.761196,19.4056 10.922,0 19.3548,-8.4836 19.3548,-19.4564 z m -7.0104,0.1016 c 0,7.2136 -5.2832,12.6492 -12.3952,12.6492 -7.112,0 -12.699999,-5.588 -12.699999,-12.7 0,-7.2644 5.486399,-12.7508 12.699999,-12.7508 6.9596,0 12.3952,5.588 12.3952,12.8016 z" />
                <path
                   id="path5346"
                   style="fill:#00ffff;stroke:#00ffff;stroke-width:3.13290429;stroke-miterlimit:4;stroke-dasharray:none;stroke-opacity:1"
                   d="m 88.734979,-50.539732 c 0,-10.7188 -8.5852,-19.405599 -19.304,-19.405599 -11.176,0 -19.812,8.483599 -19.812,19.456399 0,10.8204 8.7376,19.4056 19.7612,19.4056 10.922,0 19.3548,-8.4836 19.3548,-19.4564 z m -7.0104,0.1016 c 0,7.2136 -5.2832,12.6492 -12.3952,12.6492 -7.112,0 -12.7,-5.588 -12.7,-12.7 0,-7.2644 5.4864,-12.7508 12.7,-12.7508 6.9596,0 12.3952,5.588 12.3952,12.8016 z" />
              </g>
            </g>
          </g>
          <path
             d="m 126.67816,-49.861423 c 0,-7.112 -3.28435,-13.0048 -9.11692,-16.1544 -3.28435,-1.778 -8.26751,-2.692399 -14.83622,-2.692399 h -9.569912 v 37.541199 h 9.739792 c 6.3422,0 10.1362,-0.5588 13.53381,-2.0828 6.45545,-2.8448 10.24945,-9.0424 10.24945,-16.6116 z m -7.8145,0 c 0,4.5212 -2.3217,8.5344 -6.05907,10.3632 -2.3217,1.1684 -5.54942,1.6764 -10.19282,1.6764 h -1.69881 v -24.2316 h 1.52893 c 4.92653,0 7.58799,0.4064 10.02294,1.524 3.96388,1.8288 6.39883,5.842 6.39883,10.668 z"
             style="fill:#00ffff;stroke:#00ffff;stroke-width:3.13290429;stroke-miterlimit:4;stroke-dasharray:none;stroke-opacity:1"
             id="path5354" />
        </g>
        <path
           style="fill:none;stroke:#00ffff;stroke-width:7;stroke-linecap:butt;stroke-linejoin:miter;stroke-miterlimit:4;stroke-dasharray:none;stroke-opacity:1"
           d="m -195.81047,-318.60009 c 0,0 13.25287,17.57532 36.76114,17.57532 22.03782,0 36.76113,-17.57532 36.76113,-17.57532"
           id="path5358" />
        <g
           transform="matrix(0.91695543,0,0,1,-200.44159,-296.74313)"
           id="g5402"
           style="font-style:normal;font-variant:normal;font-weight:normal;font-stretch:normal;font-size:50.79999924px;line-height:1.25;font-family:'TeX Gyre Adventor';-inkscape-font-specification:'TeX Gyre Adventor';letter-spacing:0px;word-spacing:0px;fill:#008000;fill-opacity:1;stroke:#008000;stroke-width:3.13290429;stroke-miterlimit:4;stroke-dasharray:none;stroke-opacity:1"
           aria-label="GOOD">
          <path
             id="path5388"
             style="fill:#008000;stroke:#008000;stroke-width:3.13290429;stroke-miterlimit:4;stroke-dasharray:none;stroke-opacity:1"
             d="m -6.2620787,-49.980932 v -0.9144 H -30.798486 v 6.5024 h 15.544805 c -2.032002,4.1656 -6.096004,6.604 -11.023605,6.604 -7.366,0 -13.0048,-5.5372 -13.0048,-12.7 0,-7.0612 5.1816,-12.7508 12.5984,-12.7508 4.3688,0 7.975603,1.7272 10.312404,4.9784 h 8.1788033 c -2.4384003,-6.7564 -10.1600043,-11.683999 -18.3388073,-11.683999 -10.9728,0 -19.7612,8.585199 -19.7612,19.354799 0,10.9728 8.89,19.5072 20.4216,19.5072 11.074405,0 19.6088073,-8.6868 19.6088073,-18.8976 z" />
          <g
             transform="translate(-2.8477548)"
             id="g5398"
             style="fill:#008000;stroke:#008000;stroke-width:3.13290429;stroke-miterlimit:4;stroke-dasharray:none">
            <g
               id="g5396"
               style="fill:#008000;stroke:#008000;stroke-width:3.13290429;stroke-miterlimit:4;stroke-dasharray:none">
              <g
                 id="g5394"
                 style="fill:#008000;stroke:#008000;stroke-width:3.13290429;stroke-miterlimit:4;stroke-dasharray:none">
                <path
                   d="m 42.895914,-50.539732 c 0,-10.7188 -8.5852,-19.405599 -19.304,-19.405599 -11.175999,0 -19.811996,8.483599 -19.811996,19.456399 0,10.8204 8.737597,19.4056 19.761196,19.4056 10.922,0 19.3548,-8.4836 19.3548,-19.4564 z m -7.0104,0.1016 c 0,7.2136 -5.2832,12.6492 -12.3952,12.6492 -7.112,0 -12.699999,-5.588 -12.699999,-12.7 0,-7.2644 5.486399,-12.7508 12.699999,-12.7508 6.9596,0 12.3952,5.588 12.3952,12.8016 z"
                   style="fill:#008000;stroke:#008000;stroke-width:3.13290429;stroke-miterlimit:4;stroke-dasharray:none;stroke-opacity:1"
                   id="path5390" />
                <path
                   d="m 88.734979,-50.539732 c 0,-10.7188 -8.5852,-19.405599 -19.304,-19.405599 -11.176,0 -19.812,8.483599 -19.812,19.456399 0,10.8204 8.7376,19.4056 19.7612,19.4056 10.922,0 19.3548,-8.4836 19.3548,-19.4564 z m -7.0104,0.1016 c 0,7.2136 -5.2832,12.6492 -12.3952,12.6492 -7.112,0 -12.7,-5.588 -12.7,-12.7 0,-7.2644 5.4864,-12.7508 12.7,-12.7508 6.9596,0 12.3952,5.588 12.3952,12.8016 z"
                   style="fill:#008000;stroke:#008000;stroke-width:3.13290429;stroke-miterlimit:4;stroke-dasharray:none;stroke-opacity:1"
                   id="path5392" />
              </g>
            </g>
          </g>
          <path
             id="path5400"
             style="fill:#008000;stroke:#008000;stroke-width:3.13290429;stroke-miterlimit:4;stroke-dasharray:none;stroke-opacity:1"
             d="m 126.67816,-49.861423 c 0,-7.112 -3.28435,-13.0048 -9.11692,-16.1544 -3.28435,-1.778 -8.26751,-2.692399 -14.83622,-2.692399 h -9.569912 v 37.541199 h 9.739792 c 6.3422,0 10.1362,-0.5588 13.53381,-2.0828 6.45545,-2.8448 10.24945,-9.0424 10.24945,-16.6116 z m -7.8145,0 c 0,4.5212 -2.3217,8.5344 -6.05907,10.3632 -2.3217,1.1684 -5.54942,1.6764 -10.19282,1.6764 h -1.69881 v -24.2316 h 1.52893 c 4.92653,0 7.58799,0.4064 10.02294,1.524 3.96388,1.8288 6.39883,5.842 6.39883,10.668 z" />
        </g>
        <path
           id="path5404"
           d="m -197.39797,-319.65843 c 0,0 13.25287,17.57532 36.76114,17.57532 22.03782,0 36.76113,-17.57532 36.76113,-17.57532"
           style="fill:none;stroke:#008000;stroke-width:7;stroke-linecap:butt;stroke-linejoin:miter;stroke-miterlimit:4;stroke-dasharray:none;stroke-opacity:1" />
      </g>
    </g>
  </g>
</svg>
